<svg xmlns="http://www.w3.org/2000/svg" width="32" height="32" viewBox="0 0 256 256">
  <style>
    .stroke { stroke: #e8e8e8; fill: none; stroke-width: 10; stroke-linecap: round; }
    .thin { stroke: #e8e8e8; fill: none; stroke-width: 6; stroke-linecap: round; }
    .fill { fill: #e8e8e8; }
  </style>

  <circle class="stroke" cx="128" cy="128" r="95"/>
  <circle class="thin" cx="128" cy="128" r="70"/>
  <circle class="thin" cx="128" cy="128" r="35"/>
  <circle class="fill" cx="128" cy="128" r="15"/>

  <g stroke="#e8e8e8" stroke-width="4" stroke-linecap="round">
    <line x1="128" y1="87" x2="128" y2="92"/>
    <line x1="128" y1="164" x2="128" y2="159"/>
    <line x1="87" y1="128" x2="92" y2="128"/>
    <line x1="164" y1="128" x2="159" y2="128"/>
    <line x1="103" y1="103" x2="107" y2="107"/>
    <line x1="153" y1="153" x2="149" y2="149"/>
    <line x1="103" y1="153" x2="107" y2="149"/>
    <line x1="153" y1="103" x2="149" y2="107"/>
  </g>

  <line class="stroke" x1="128" y1="40" x2="128" y2="68"/>
  <line class="stroke" x1="128" y1="216" x2="128" y2="188"/>
  <line class="stroke" x1="40" y1="128" x2="68" y2="128"/>
  <line class="stroke" x1="216" y1="128" x2="188" y2="128"/>

  <line class="stroke" x1="78" y1="78" x2="98" y2="98"/>
  <line class="stroke" x1="178" y1="178" x2="158" y2="158"/>
  <line class="stroke" x1="178" y1="78" x2="158" y2="98"/>
  <line class="stroke" x1="78" y1="178" x2="98" y2="158"/>

  <rect class="fill" x="37" y="98" width="16" height="60" rx="3"/>
  <rect class="fill" x="53" y="98" width="10" height="60" rx="2"/>
</svg>
